# xmcd
#
# Track frame offsets: 
#        150
#        14212
#        25694
#        39002
#        51164
#        60290
#        69793
#        80268
#        96039
#        108752
#        120306
#        130206
#        145302
#        164659
#        177013
#        194123
#        204062
#        215630
#        231102
#        248152
#        262618
#        276320
#
# Disc length: 3923 seconds
#
# Revision: 0
# Processed by: cddbd v1.5.2PL0 Copyright (c) Steve Scherf et al.
# Submitted via: ExactAudioCopyFreeDBPlugin 1.0
#
DISCID=250f5116
DTITLE=Memphis Slim - Boogie After Midnight (1 of 2)
DYEAR=2012
DGENRE=Blues
TTITLE0=Messin' Around
TTITLE1=Nobody Loves Me (Everyday I Have The Blues)
TTITLE2=Harlem Bound
TTITLE3=Mother Earth
TTITLE4=Steppin Out
TTITLE5=Rockin' The Blues
TTITLE6=Gotta Find My Baby
TTITLE7=John Henry
TTITLE8=I Feel So Good
TTITLE9=Boogie Woogie
TTITLE10=Roll And Tumble
TTITLE11=Beer Drinking Woman
TTITLE12=Highway 51 Blues
TTITLE13=46Th Street Boogie (Fast Boogie)
TTITLE14=Chicago House Rent Party Blues
TTITLE15=Big Legged Woman
TTITLE16=Sail On Blues
TTITLE17=Boogie After Midnight
TTITLE18=Sweet Root Man
TTITLE19=Good Rockin' Blues
TTITLE20=In The Evening When The Sun Goes Down
TTITLE21=I Just Want To Make Love To You
EXTD=
EXTT0=
EXTT1=
EXTT2=
EXTT3=
EXTT4=
EXTT5=
EXTT6=
EXTT7=
EXTT8=
EXTT9=
EXTT10=
EXTT11=
EXTT12=
EXTT13=
EXTT14=
EXTT15=
EXTT16=
EXTT17=
EXTT18=
EXTT19=
EXTT20=
EXTT21=
PLAYORDER=
